<svg width="570" height="523" viewBox="0 0 570 523" fill="none" xmlns="http://www.w3.org/2000/svg">
<rect width="570" height="523" rx="261.5" fill="#F6EBD5"/>
<mask id="mask0_2_191" style="mask-type:alpha" maskUnits="userSpaceOnUse" x="0" y="0" width="570" height="523">
<rect width="570" height="523" rx="261.5" fill="#F6EBD5"/>
</mask>
<g mask="url(#mask0_2_191)">
<path d="M256.733 113.582C263.018 113.582 256.882 161.412 256.733 165.894L298.55 146.788V119.656V101.726L256.733 113.582Z" fill="#F4B5A6"/>
<path d="M256.733 113.606C260.293 113.606 259.024 129.692 259.256 140.66L286.293 105.331L256.733 113.606Z" fill="#291A0C"/>
<path d="M239.79 57.7458C238.048 101.247 239.977 132.008 255.581 132.008C262.624 132.008 285.838 115.644 294.885 103.446C305.92 66.5738 252.779 52.8821 239.79 57.7458Z" fill="#F4B5A6"/>
<path d="M281.246 88.0828C284.322 87.7808 288.778 88.6145 288.438 93.0474M285.782 99.5633C287.531 96.8165 288.312 94.686 288.438 93.0474M288.438 93.0474C286.257 94.2885 281.894 95.7778 281.894 91.8062" stroke="#F68F87"/>
<path d="M263.222 105.331C263.222 107.322 261.608 108.936 259.617 108.936C257.626 108.936 256.012 107.322 256.012 105.331C256.012 103.34 257.626 101.726 259.617 101.726C261.608 101.726 263.222 103.34 263.222 105.331Z" fill="#FB4348" fill-opacity="0.33"/>
<path d="M242.067 65.7887C242.067 66.9275 241.567 70.1367 239.567 73.8636C238.63 72.9319 238.005 70.1367 237.693 65.7887C236.527 67.8159 233.189 71.7332 232.996 76.0301C233.002 76.346 233.006 76.659 233.006 76.9694C232.985 76.6547 232.982 76.3414 232.996 76.0301C232.873 69.3921 231.869 61.4551 247.379 48.7071C267.525 32.1477 305.208 36.8211 314.556 62.3724C315.181 63.6147 317.993 71.0685 320.18 72.0002H316.431L319.243 79.7645L314.868 76.3482C315.806 81.628 309.682 108.648 298.933 124.798C292.059 122.624 288.935 119.518 285.185 105.853C299.246 97.4673 290.497 81.3175 278.311 86.5972C276.749 86.5972 268.001 85.0444 271.125 76.9694C270.188 76.9694 249.566 80.3857 242.067 65.7887Z" fill="#C75903"/>
<path d="M232.579 284.137C242.673 210.019 266.586 169.379 270.432 163.371C239.068 155.08 218.4 299.278 219.962 345.782L226.812 364.167C227.54 347.579 231.895 298.656 232.579 284.137Z" fill="#3C9BAE"/>
<path d="M175.982 432.706L207.515 433.405L235.107 434.103C235.346 410.588 235.824 359.787 235.824 344.7C214.61 348.053 187.568 346.563 176.698 345.399L175.982 432.706Z" fill="white" stroke="black"/>
<path d="M201.577 422.928H176.342" stroke="black"/>
<path d="M187.878 358.399C185.355 373.059 181.822 404.47 187.878 412.834" stroke="black"/>
<path d="M201.216 359.12V412.473" stroke="black"/>
<path d="M214.915 359.48V412.834" stroke="black"/>
<path d="M260.698 159.405C272.234 160.847 290.98 144.986 298.55 142.462C299.271 143.544 301.362 146.356 303.958 148.951C310.206 154.359 325.299 166.832 335.681 173.465C346.856 180.604 369.928 340.735 342.531 340.735C338.205 340.735 328.471 334.606 312.97 319.465C312.249 327.757 320.54 364.167 308.644 358.759C301.555 355.537 252.046 356.957 231.498 357.678C230.176 357.558 227.532 356.452 227.532 352.992C227.532 349.531 229.695 302.762 230.777 279.811C232.437 267.618 246.999 175.628 260.698 159.405Z" fill="#4FB1C5"/>
<path d="M342.531 340.734C369.928 340.734 346.856 180.604 335.681 173.465C272.234 164.813 304.679 255.297 308.644 266.112C295.666 254.864 278.362 251.091 268.99 248.087C264.423 251.572 256.588 259.19 261.78 261.786C260.698 266.833 261.78 273.682 265.385 275.485C285.284 288.463 305.201 313.577 312.672 324.512L312.678 324.406C312.776 322.422 312.86 320.721 312.97 319.465C328.471 334.606 338.205 340.734 342.531 340.734Z" fill="#44A6BA"/>
<path d="M278.723 339.653C276.8 342.177 273.388 349.026 275.118 356.236" stroke="black"/>
<path d="M293.143 303.604C290.018 318.504 283.193 349.675 280.886 355.154" stroke="black"/>
<path d="M275.479 297.475C276.079 299.158 277.209 303.604 276.921 307.93" stroke="black"/>
<path d="M271.874 590.919C275.839 583.348 280.525 511.61 280.525 494.306C268.148 461.001 249.523 387.96 258.896 356.748C248.658 357.084 238.697 357.425 231.498 357.678C227.46 352.487 226.932 511.009 227.172 590.919H271.874Z" fill="#0F35B7"/>
<path d="M279.715 515.935C280.226 506.526 280.525 498.678 280.525 494.306C272.305 472.187 269.455 463.059 265.745 429.777C261.419 464.024 271.034 490.891 279.715 515.935Z" fill="#291A0C"/>
<path d="M269.711 478.804C262.26 493.344 248.369 532.158 252.407 571.091" stroke="black"/>
<path d="M267.187 468.71C263.462 472.195 255.868 482.193 255.291 494.306" stroke="black"/>
<path d="M340.368 591.279H300.713C296.628 566.525 288.817 531.076 279.444 511.249C279.444 528.553 275.479 583.708 271.513 591.279" stroke="black"/>
<path d="M237.987 374.261C239.549 384.595 243.755 406.849 248.081 413.194C241.952 405.263 235.824 390.843 235.464 383.633" stroke="black"/>
<path d="M256.012 447.802C252.166 447.441 243.899 444.773 241.592 436.987" stroke="black"/>
<path d="M317.656 380.389C314.484 360.778 306.481 355.635 302.876 355.515C297.817 355.515 277.879 356.124 258.896 356.748C246.278 380.389 268.633 469.052 279.991 511.249C289.56 535.136 297.192 571.77 300.353 590.919H349.38C340.127 528.913 320.829 400 317.656 380.389Z" fill="#0F35B7"/>
<path d="M298.55 401.658C295.455 397.982 289.773 387.281 287.375 370.157M286.293 356.596C286.406 361.488 286.794 366.011 287.375 370.157M287.375 370.157C285.212 369.843 280.165 366.834 277.281 357.317" stroke="black"/>
<path d="M306.481 358.038C308.644 356.957 296.531 355.875 230.777 360.201" stroke="black"/>
<path d="M299.271 412.473C296.027 415.718 287.303 422.134 278.362 421.846" stroke="black"/>
<path d="M263.943 250.971C259.256 256.499 249.09 273.899 245.918 299.278" stroke="black"/>
<path d="M255.651 157.603C267.908 154.719 290.98 144.986 298.55 142.462C299.271 143.544 301.362 146.356 303.958 148.951C299.632 159.333 264.543 178.271 255.651 182.117V157.603Z" fill="#C75903"/>
<path d="M342.531 340.735C369.928 340.735 346.856 180.604 335.681 173.465C322.463 172.143 297.324 176.133 302.515 202.665C307.706 229.197 313.33 261.546 315.493 274.404C300.472 265.632 270.071 248.592 268.629 250.611C266.826 253.134 258.895 268.996 267.908 274.404C276.92 279.811 302.515 301.441 312.97 319.466C328.471 334.606 338.205 340.735 342.531 340.735Z" fill="#4FB1C5"/>
<path d="M267.908 274.403C258.895 268.996 266.826 253.134 268.629 250.611C269.107 249.941 272.77 251.368 278.002 253.894C273.964 258.828 273.195 272.099 273.315 278.117C271.18 276.525 269.336 275.26 267.908 274.403Z" fill="#C75903"/>
<path d="M264.471 260.344C265.642 255.814 267.794 251.78 268.629 250.611C266.466 249.049 260.987 243.329 259.256 232.947C258.535 230.423 252.767 224.295 232.94 224.655C238.347 229.342 248.513 230.856 240.15 232.586C229.695 234.749 216.718 234.389 208.066 231.865C209.508 234.028 214.915 240.517 221.765 240.878C217.799 241.238 220.683 245.203 228.614 248.087C236.545 250.971 264.117 258.181 264.294 261.065C264.35 260.824 264.409 260.583 264.471 260.344Z" fill="#F4B5A6"/>
<path d="M240.15 232.586C248.513 230.856 238.347 229.342 232.94 224.655L208.066 206.27L193.285 215.643L212.73 232.947C220.981 234.439 231.441 234.388 240.15 232.586Z" fill="#040404"/>
<path d="M225.009 424.009C224.432 432.084 226.691 434.103 227.893 434.103V438.79C222.846 440.232 220.683 436.266 219.962 435.185C218.232 437.492 216.117 435.906 215.276 434.824C214.915 436.747 213.329 440.664 209.868 440.953C205.542 441.313 208.066 431.94 208.066 426.533C208.066 421.125 210.589 422.567 211.671 422.567C215.636 414.636 219.241 421.486 219.962 423.649C222.125 418.962 225.009 421.486 225.009 424.009Z" fill="#F4B5A6"/>
<path d="M213.113 424.73C213.834 426.052 215.131 429.416 214.555 432.3" stroke="black"/>
<path d="M218.881 425.812C219.361 427.494 220.25 431.219 219.962 432.661" stroke="black"/>
<path d="M341.449 293.149C338.805 287.862 330.057 276.855 316.214 275.124C330.274 278.729 339.286 282.334 344.333 289.184" stroke="black"/>
<path d="M319.819 302.883C314.772 295.553 302.083 281.974 291.701 286.3" stroke="black"/>
<path d="M297.469 268.275C297.469 273.202 295.954 284.425 289.898 289.905" stroke="black"/>
<path d="M307.923 166.255L319.459 174.546C311.768 175.988 297.541 183.631 302.155 202.665" stroke="black"/>
</g>
</svg>
